# xmcd CD database file
#
# Track frame offsets:
#	150
#	9435
#	20517
#	31697
#	42390
#	53154
#	64706
#	81277
#	93974
#	106530
#	120101
#	131178
#
# Disc length: 1878 seconds
#
# Revision: 2
# Processed by: cddbd v1.5.2PL0 Copyright (c) Steve Scherf et al.
# Submitted via: CDex 1.77
#
DISCID=8707540c
DTITLE=Waylon Jennings - The Box Set Series - CD1
DYEAR=1900
DGENRE=Country
TTITLE0=Stop The World (And Let Me Off)
TTITLE1=(That's What You Get) For Lovin' Me
TTITLE2=The Chokin' Kind
TTITLE3=Only Daddy That'll Walk The Line
TTITLE4=The Taker
TTITLE5=Ladies Love Outlaws
TTITLE6=Lonesome, On'ry And Mean
TTITLE7=I'm A Ramblin' Man
TTITLE8=We Had It All
TTITLE9=Amanda
TTITLE10=Dreaming My Dreams With You
TTITLE11=The Wurlitzer Prize (I Don't Want To Get Over You)
EXTD=
EXTT0=
EXTT1=
EXTT2=
EXTT3=
EXTT4=
EXTT5=
EXTT6=
EXTT7=
EXTT8=
EXTT9=
EXTT10=
EXTT11=
PLAYORDER=
